<svg xmlns="http://www.w3.org/2000/svg" xmlns:xlink="http://www.w3.org/1999/xlink" width="500" zoomAndPan="magnify" viewBox="0 0 375 374.999991" height="500" preserveAspectRatio="xMidYMid meet" version="1.0"><defs><g/><clipPath id="db18fb70c6"><path d="M 37.5 12.390625 L 337.5 12.390625 L 337.5 312.390625 L 37.5 312.390625 Z M 37.5 12.390625 " clip-rule="nonzero"/></clipPath><clipPath id="1af44b9eb2"><path d="M 54.75 12.390625 L 320.25 12.390625 C 324.824219 12.390625 329.210938 14.210938 332.449219 17.445312 C 335.683594 20.679688 337.5 25.066406 337.5 29.640625 L 337.5 295.140625 C 337.5 299.714844 335.683594 304.105469 332.449219 307.339844 C 329.210938 310.574219 324.824219 312.390625 320.25 312.390625 L 54.75 312.390625 C 50.175781 312.390625 45.789062 310.574219 42.550781 307.339844 C 39.316406 304.105469 37.5 299.714844 37.5 295.140625 L 37.5 29.640625 C 37.5 25.066406 39.316406 20.679688 42.550781 17.445312 C 45.789062 14.210938 50.175781 12.390625 54.75 12.390625 Z M 54.75 12.390625 " clip-rule="nonzero"/></clipPath><clipPath id="81cb99a5a4"><path d="M 193.132812 23.265625 L 328.132812 23.265625 L 328.132812 158.265625 L 193.132812 158.265625 Z M 193.132812 23.265625 " clip-rule="nonzero"/></clipPath><clipPath id="ddc6fdb2ce"><path d="M 260.632812 23.265625 C 223.355469 23.265625 193.132812 53.488281 193.132812 90.765625 C 193.132812 128.046875 223.355469 158.265625 260.632812 158.265625 C 297.914062 158.265625 328.132812 128.046875 328.132812 90.765625 C 328.132812 53.488281 297.914062 23.265625 260.632812 23.265625 Z M 260.632812 23.265625 " clip-rule="nonzero"/></clipPath><clipPath id="cbb02ae8ff"><path d="M 47.25 24.015625 L 182.25 24.015625 L 182.25 159.015625 L 47.25 159.015625 Z M 47.25 24.015625 " clip-rule="nonzero"/></clipPath><clipPath id="2fe1ae5092"><path d="M 114.75 24.015625 C 77.472656 24.015625 47.25 54.238281 47.25 91.515625 C 47.25 128.796875 77.472656 159.015625 114.75 159.015625 C 152.027344 159.015625 182.25 128.796875 182.25 91.515625 C 182.25 54.238281 152.027344 24.015625 114.75 24.015625 Z M 114.75 24.015625 " clip-rule="nonzero"/></clipPath><clipPath id="efc640c90a"><path d="M 193.132812 167.828125 L 328.132812 167.828125 L 328.132812 302.828125 L 193.132812 302.828125 Z M 193.132812 167.828125 " clip-rule="nonzero"/></clipPath><clipPath id="d722e22606"><path d="M 260.632812 167.828125 C 223.355469 167.828125 193.132812 198.050781 193.132812 235.328125 C 193.132812 272.609375 223.355469 302.828125 260.632812 302.828125 C 297.914062 302.828125 328.132812 272.609375 328.132812 235.328125 C 328.132812 198.050781 297.914062 167.828125 260.632812 167.828125 Z M 260.632812 167.828125 " clip-rule="nonzero"/></clipPath><clipPath id="de137e2063"><path d="M 47.25 168.203125 L 182.25 168.203125 L 182.25 303.203125 L 47.25 303.203125 Z M 47.25 168.203125 " clip-rule="nonzero"/></clipPath><clipPath id="e4c38708d5"><path d="M 114.75 168.203125 C 77.472656 168.203125 47.25 198.425781 47.25 235.703125 C 47.25 272.984375 77.472656 303.203125 114.75 303.203125 C 152.027344 303.203125 182.25 272.984375 182.25 235.703125 C 182.25 198.425781 152.027344 168.203125 114.75 168.203125 Z M 114.75 168.203125 " clip-rule="nonzero"/></clipPath></defs><g clip-path="url(#db18fb70c6)"><g clip-path="url(#1af44b9eb2)"><path fill="#aaaaaa" d="M 37.5 12.390625 L 337.5 12.390625 L 337.5 312.390625 L 37.5 312.390625 Z M 37.5 12.390625 " fill-opacity="1" fill-rule="nonzero"/></g></g><g fill="#000000" fill-opacity="1"><g transform="translate(45.257814, 350.341619)"><g><path d="M 16.96875 0.5625 C 14 0.5625 11.332031 -0.0625 8.96875 -1.3125 C 6.601562 -2.570312 4.742188 -4.320312 3.390625 -6.5625 C 2.046875 -8.800781 1.375 -11.335938 1.375 -14.171875 C 1.375 -17.003906 2.046875 -19.539062 3.390625 -21.78125 C 4.742188 -24.03125 6.601562 -25.78125 8.96875 -27.03125 C 11.332031 -28.289062 14 -28.921875 16.96875 -28.921875 C 19.5625 -28.921875 21.894531 -28.457031 23.96875 -27.53125 C 26.050781 -26.613281 27.78125 -25.296875 29.15625 -23.578125 L 24.0625 -18.953125 C 22.21875 -21.171875 19.988281 -22.28125 17.375 -22.28125 C 15.832031 -22.28125 14.460938 -21.941406 13.265625 -21.265625 C 12.066406 -20.585938 11.132812 -19.632812 10.46875 -18.40625 C 9.8125 -17.175781 9.484375 -15.765625 9.484375 -14.171875 C 9.484375 -12.578125 9.8125 -11.164062 10.46875 -9.9375 C 11.132812 -8.707031 12.066406 -7.753906 13.265625 -7.078125 C 14.460938 -6.410156 15.832031 -6.078125 17.375 -6.078125 C 19.988281 -6.078125 22.21875 -7.179688 24.0625 -9.390625 L 29.15625 -4.78125 C 27.78125 -3.050781 26.050781 -1.726562 23.96875 -0.8125 C 21.894531 0.101562 19.5625 0.5625 16.96875 0.5625 Z M 16.96875 0.5625 "/></g></g></g><g fill="#000000" fill-opacity="1"><g transform="translate(75.138176, 350.341619)"><g><path d="M 17.125 0.5625 C 14.132812 0.5625 11.441406 -0.0664062 9.046875 -1.328125 C 6.660156 -2.597656 4.785156 -4.351562 3.421875 -6.59375 C 2.054688 -8.84375 1.375 -11.367188 1.375 -14.171875 C 1.375 -16.984375 2.054688 -19.507812 3.421875 -21.75 C 4.785156 -23.988281 6.660156 -25.742188 9.046875 -27.015625 C 11.441406 -28.285156 14.132812 -28.921875 17.125 -28.921875 C 20.125 -28.921875 22.816406 -28.285156 25.203125 -27.015625 C 27.597656 -25.742188 29.476562 -23.988281 30.84375 -21.75 C 32.207031 -19.507812 32.890625 -16.984375 32.890625 -14.171875 C 32.890625 -11.367188 32.207031 -8.84375 30.84375 -6.59375 C 29.476562 -4.351562 27.597656 -2.597656 25.203125 -1.328125 C 22.816406 -0.0664062 20.125 0.5625 17.125 0.5625 Z M 17.125 -6.078125 C 18.5625 -6.078125 19.859375 -6.410156 21.015625 -7.078125 C 22.179688 -7.753906 23.097656 -8.707031 23.765625 -9.9375 C 24.441406 -11.164062 24.78125 -12.578125 24.78125 -14.171875 C 24.78125 -15.765625 24.441406 -17.175781 23.765625 -18.40625 C 23.097656 -19.632812 22.179688 -20.585938 21.015625 -21.265625 C 19.859375 -21.941406 18.5625 -22.28125 17.125 -22.28125 C 15.695312 -22.28125 14.398438 -21.941406 13.234375 -21.265625 C 12.078125 -20.585938 11.160156 -19.632812 10.484375 -18.40625 C 9.816406 -17.175781 9.484375 -15.765625 9.484375 -14.171875 C 9.484375 -12.578125 9.816406 -11.164062 10.484375 -9.9375 C 11.160156 -8.707031 12.078125 -7.753906 13.234375 -7.078125 C 14.398438 -6.410156 15.695312 -6.078125 17.125 -6.078125 Z M 17.125 -6.078125 "/></g></g></g><g fill="#000000" fill-opacity="1"><g transform="translate(109.391279, 350.341619)"><g><path d="M 2.828125 -28.34375 L 10.859375 -28.34375 L 10.859375 -6.359375 L 24.375 -6.359375 L 24.375 0 L 2.828125 0 Z M 2.828125 -28.34375 "/></g></g></g><g fill="#000000" fill-opacity="1"><g transform="translate(134.089138, 350.341619)"><g><path d="M 17.125 0.5625 C 14.132812 0.5625 11.441406 -0.0664062 9.046875 -1.328125 C 6.660156 -2.597656 4.785156 -4.351562 3.421875 -6.59375 C 2.054688 -8.84375 1.375 -11.367188 1.375 -14.171875 C 1.375 -16.984375 2.054688 -19.507812 3.421875 -21.75 C 4.785156 -23.988281 6.660156 -25.742188 9.046875 -27.015625 C 11.441406 -28.285156 14.132812 -28.921875 17.125 -28.921875 C 20.125 -28.921875 22.816406 -28.285156 25.203125 -27.015625 C 27.597656 -25.742188 29.476562 -23.988281 30.84375 -21.75 C 32.207031 -19.507812 32.890625 -16.984375 32.890625 -14.171875 C 32.890625 -11.367188 32.207031 -8.84375 30.84375 -6.59375 C 29.476562 -4.351562 27.597656 -2.597656 25.203125 -1.328125 C 22.816406 -0.0664062 20.125 0.5625 17.125 0.5625 Z M 17.125 -6.078125 C 18.5625 -6.078125 19.859375 -6.410156 21.015625 -7.078125 C 22.179688 -7.753906 23.097656 -8.707031 23.765625 -9.9375 C 24.441406 -11.164062 24.78125 -12.578125 24.78125 -14.171875 C 24.78125 -15.765625 24.441406 -17.175781 23.765625 -18.40625 C 23.097656 -19.632812 22.179688 -20.585938 21.015625 -21.265625 C 19.859375 -21.941406 18.5625 -22.28125 17.125 -22.28125 C 15.695312 -22.28125 14.398438 -21.941406 13.234375 -21.265625 C 12.078125 -20.585938 11.160156 -19.632812 10.484375 -18.40625 C 9.816406 -17.175781 9.484375 -15.765625 9.484375 -14.171875 C 9.484375 -12.578125 9.816406 -11.164062 10.484375 -9.9375 C 11.160156 -8.707031 12.078125 -7.753906 13.234375 -7.078125 C 14.398438 -6.410156 15.695312 -6.078125 17.125 -6.078125 Z M 17.125 -6.078125 "/></g></g></g><g fill="#000000" fill-opacity="1"><g transform="translate(168.342241, 350.341619)"><g><path d="M 15.234375 -7.53125 L 10.859375 -7.53125 L 10.859375 0 L 2.828125 0 L 2.828125 -28.34375 L 15.796875 -28.34375 C 18.359375 -28.34375 20.582031 -27.914062 22.46875 -27.0625 C 24.363281 -26.21875 25.820312 -25.003906 26.84375 -23.421875 C 27.875 -21.847656 28.390625 -19.992188 28.390625 -17.859375 C 28.390625 -15.804688 27.910156 -14.015625 26.953125 -12.484375 C 25.992188 -10.960938 24.625 -9.769531 22.84375 -8.90625 L 28.953125 0 L 20.375 0 Z M 20.296875 -17.859375 C 20.296875 -19.179688 19.875 -20.207031 19.03125 -20.9375 C 18.195312 -21.664062 16.957031 -22.03125 15.3125 -22.03125 L 10.859375 -22.03125 L 10.859375 -13.734375 L 15.3125 -13.734375 C 16.957031 -13.734375 18.195312 -14.085938 19.03125 -14.796875 C 19.875 -15.515625 20.296875 -16.535156 20.296875 -17.859375 Z M 20.296875 -17.859375 "/></g></g></g><g fill="#000000" fill-opacity="1"><g transform="translate(198.303581, 350.341619)"><g/></g></g><g fill="#000000" fill-opacity="1"><g transform="translate(210.085673, 350.341619)"><g><path d="M 17.125 0.5625 C 14.132812 0.5625 11.441406 -0.0664062 9.046875 -1.328125 C 6.660156 -2.597656 4.785156 -4.351562 3.421875 -6.59375 C 2.054688 -8.84375 1.375 -11.367188 1.375 -14.171875 C 1.375 -16.984375 2.054688 -19.507812 3.421875 -21.75 C 4.785156 -23.988281 6.660156 -25.742188 9.046875 -27.015625 C 11.441406 -28.285156 14.132812 -28.921875 17.125 -28.921875 C 20.125 -28.921875 22.816406 -28.285156 25.203125 -27.015625 C 27.597656 -25.742188 29.476562 -23.988281 30.84375 -21.75 C 32.207031 -19.507812 32.890625 -16.984375 32.890625 -14.171875 C 32.890625 -11.367188 32.207031 -8.84375 30.84375 -6.59375 C 29.476562 -4.351562 27.597656 -2.597656 25.203125 -1.328125 C 22.816406 -0.0664062 20.125 0.5625 17.125 0.5625 Z M 17.125 -6.078125 C 18.5625 -6.078125 19.859375 -6.410156 21.015625 -7.078125 C 22.179688 -7.753906 23.097656 -8.707031 23.765625 -9.9375 C 24.441406 -11.164062 24.78125 -12.578125 24.78125 -14.171875 C 24.78125 -15.765625 24.441406 -17.175781 23.765625 -18.40625 C 23.097656 -19.632812 22.179688 -20.585938 21.015625 -21.265625 C 19.859375 -21.941406 18.5625 -22.28125 17.125 -22.28125 C 15.695312 -22.28125 14.398438 -21.941406 13.234375 -21.265625 C 12.078125 -20.585938 11.160156 -19.632812 10.484375 -18.40625 C 9.816406 -17.175781 9.484375 -15.765625 9.484375 -14.171875 C 9.484375 -12.578125 9.816406 -11.164062 10.484375 -9.9375 C 11.160156 -8.707031 12.078125 -7.753906 13.234375 -7.078125 C 14.398438 -6.410156 15.695312 -6.078125 17.125 -6.078125 Z M 17.125 -6.078125 "/></g></g></g><g fill="#000000" fill-opacity="1"><g transform="translate(244.338765, 350.341619)"><g><path d="M 29.8125 -28.34375 L 29.8125 0 L 23.203125 0 L 10.6875 -15.109375 L 10.6875 0 L 2.828125 0 L 2.828125 -28.34375 L 9.4375 -28.34375 L 21.953125 -13.25 L 21.953125 -28.34375 Z M 29.8125 -28.34375 "/></g></g></g><g fill="#000000" fill-opacity="1"><g transform="translate(276.972323, 350.341619)"><g><path d="M 2.828125 -28.34375 L 10.859375 -28.34375 L 10.859375 -6.359375 L 24.375 -6.359375 L 24.375 0 L 2.828125 0 Z M 2.828125 -28.34375 "/></g></g></g><g fill="#000000" fill-opacity="1"><g transform="translate(301.670182, 350.341619)"><g><path d="M 18.015625 -10.171875 L 18.015625 0 L 10 0 L 10 -10.28125 L -0.8125 -28.34375 L 7.65625 -28.34375 L 14.375 -17.09375 L 21.09375 -28.34375 L 28.875 -28.34375 Z M 18.015625 -10.171875 "/></g></g></g><g clip-path="url(#81cb99a5a4)"><g clip-path="url(#ddc6fdb2ce)"><path fill="#bf5f97" d="M 193.132812 23.265625 L 328.132812 23.265625 L 328.132812 158.265625 L 193.132812 158.265625 Z M 193.132812 23.265625 " fill-opacity="1" fill-rule="nonzero"/></g></g><g clip-path="url(#cbb02ae8ff)"><g clip-path="url(#2fe1ae5092)"><path fill="#03b5aa" d="M 47.25 24.015625 L 182.25 24.015625 L 182.25 159.015625 L 47.25 159.015625 Z M 47.25 24.015625 " fill-opacity="1" fill-rule="nonzero"/></g></g><g clip-path="url(#efc640c90a)"><g clip-path="url(#d722e22606)"><path fill="#000000" d="M 193.132812 167.828125 L 328.132812 167.828125 L 328.132812 302.828125 L 193.132812 302.828125 Z M 193.132812 167.828125 " fill-opacity="1" fill-rule="nonzero"/></g></g><g clip-path="url(#de137e2063)"><g clip-path="url(#e4c38708d5)"><path fill="#f9da82" d="M 47.25 168.203125 L 182.25 168.203125 L 182.25 303.203125 L 47.25 303.203125 Z M 47.25 168.203125 " fill-opacity="1" fill-rule="nonzero"/></g></g></svg>