<?xml version="1.0" encoding="utf-8"?>
<!-- Generator: Adobe Illustrator 27.0.0, SVG Export Plug-In . SVG Version: 6.00 Build 0)  -->
<svg version="1.1"
	 id="Layer_1" xmlns:sodipodi="http://sodipodi.sourceforge.net/DTD/sodipodi-0.dtd" xmlns:inkscape="http://www.inkscape.org/namespaces/inkscape" xmlns:svg="http://www.w3.org/2000/svg"
	 xmlns="http://www.w3.org/2000/svg" xmlns:xlink="http://www.w3.org/1999/xlink" x="0px" y="0px" viewBox="0 0 400 400"
	 style="enable-background:new 0 0 400 400;" xml:space="preserve">
<style type="text/css">
	.st0{fill:#FFFFFF;}
</style>
<sodipodi:namedview  bordercolor="#eeeeee" borderopacity="1" id="namedview142" inkscape:current-layer="Layer_1" inkscape:cx="119.48175" inkscape:cy="231.77662" inkscape:deskcolor="#505050" inkscape:pagecheckerboard="0" inkscape:pageopacity="0" inkscape:showpageshadow="0" inkscape:window-height="1009" inkscape:window-maximized="1" inkscape:window-width="1920" inkscape:window-x="-8" inkscape:window-y="-8" inkscape:zoom="0.55657038" pagecolor="#505050" showgrid="false">
	</sodipodi:namedview>
<path id="path139" class="st0" d="M15.2,100.6C4.2,87.9-1,72.3,0.1,56.2c1.1-16.1,8.5-30.8,20.6-41.3C33,4.3,48.4-0.8,64.6,0.3
	c16.1,1.2,30.7,8.5,41.2,20.7l63.9,76.3l-23.6,23.7L80.5,42.6c-4.5-5.3-11.1-8.5-18.3-9C54.9,33.1,48,35.3,42.6,40
	c-5.5,4.7-8.7,11.3-9.2,18.5c-0.5,7.2,1.8,14.2,6.5,19.6L112,155l-23.5,23.6L15.2,100.6z M400,400.1H294.3c-36.1,0-78-32.8-78-75
	c0-39.3,35.7-75,74.9-75c71.1,0,93.9,90.6,103.6,129.3L400,400.1z M357,366.8c-12.7-44-31.3-83.4-65.8-83.4
	c-18.8,0-41.6,18.6-41.6,41.7c0,22.1,25,41.7,44.7,41.7H357L357,366.8z M381.7,103.1l-296.4,297H0.1v-85.4l296.4-297
	c22.7-22.8,62.5-22.8,85.2,0h0c11.4,11.4,17.6,26.6,17.6,42.7S393.1,91.7,381.7,103.1L381.7,103.1z M291.8,146l-38.2-38.3
	L33.4,328.5v38.3h38.2L291.8,146L291.8,146z M366.1,60.4c0-7.2-2.8-14-7.9-19.1c-10.2-10.2-28-10.2-38.2,0l-42.8,42.9l38.2,38.3
	l42.8-42.9C363.3,74.4,366.1,67.7,366.1,60.4L366.1,60.4z"/>
</svg>
