<?xml version="1.0" encoding="utf-8"?>
<!-- Generator: Adobe Illustrator 27.0.0, SVG Export Plug-In . SVG Version: 6.00 Build 0)  -->
<svg version="1.1" id="Layer_1" xmlns="http://www.w3.org/2000/svg" xmlns:xlink="http://www.w3.org/1999/xlink" x="0px" y="0px"
	 viewBox="0 0 936 936" style="enable-background:new 0 0 936 936;" xml:space="preserve">
<style type="text/css">
	.st0{fill:none;stroke:#00CC65;stroke-width:30.2374;stroke-miterlimit:10;}
	.st1{fill:none;stroke:#00CC65;stroke-width:30.2374;stroke-linecap:round;stroke-miterlimit:10;}
	.st2{fill:none;stroke:#00CC65;stroke-width:31.3573;stroke-linecap:round;stroke-miterlimit:10;}
	.st3{fill:#00CC65;}
</style>
<g>
	<circle class="st0" cx="658.2" cy="213.2" r="39"/>
	<path class="st1" d="M732.5,269.7c-21.4,20.7-11.8,58,16.9,65.8c27.5,7.5,54.2-17.6,48.4-45.5c-3-14.8-14.7-26.8-29.4-30.2"/>
	<path class="st2" d="M813.9,457.9c29.1,6.6,55-21.9,45.7-50.2c-8.9-27.1-44.4-35.7-64.6-15.5c-10.7,10.7-14.3,27-9.1,41.2"/>
	<path class="st1" d="M309.9,780.7c0,0,172.6,114.8,346.1-14.5"/>
	<path class="st1" d="M227.9,707.5c0,0-87.5-89.5-68.5-231.8c14.5-108.2,82-203.4,182.6-245.8c20.2-8.5,36.8-15.9,61.7-22.4
		c33-8.5,55-16.1,17,25c-12.8,13.8-22.5,32.9-10.6,52.7c16.3,27.1,51.4,17.4,71.5-0.7s87-83.4,97.7-98.8
		c25-36.2-15.4-58.6-53.7-94.9c0,0-27.6-25.6-64-55.2c-49-39.9-119.2,18.1-28.7,83.6"/>
	<path class="st1" d="M323.4,142.6c0,0,35-15,67.6-18.6"/>
	<path class="st2" d="M254.1,176.4c0,0,16.3-11.6,33.4-16.1"/>
	<path class="st1" d="M200.8,220.4c0,0-117.8,97.9-129.2,255.8C63.1,592.4,103,808.4,336.3,887.4c243.1,82.3,376-53.3,407.6-83.2
		c31.6-29.8,87.3-97.3,106.4-159.5c27.1-88,12.6-106.6-2.2-117.8c-13.2-10-50.2-11.4-61.8,22.2c-14.3,41.6-8,36.8-24.7,80.9
		c-8.6,22.7-26.8,50.4-26.8,50.4"/>
</g>
<path class="st3" d="M676.6,376.1c-12.1-16.4-31.2-26.2-51.6-26.2H326.9c-20.4,0-39.6,9.8-51.6,26.2l-43.7,59.6
	c-19,25.9-15.9,61.8,7.3,84l237,212.8L713.7,519c22.6-22.2,25.4-57.7,6.5-83.2L676.6,376.1z M375.9,505.2l49.2,130.1L280,505.2
	H375.9z M530.4,505.2L476,649.3l-54.5-144.1L530.4,505.2L530.4,505.2z M422.1,462.5l25.6-64h56.4l25.6,64H422.1z M576,505.2h95.8
	l-145,130.1L576,505.2z M642.2,407.3l40.6,55.3h-107l-25.6-64H625C631.8,398.5,638.2,401.8,642.2,407.3L642.2,407.3z M309.7,407.3
	c4-5.5,10.4-8.7,17.3-8.7h74.9l-25.6,64h-107L309.7,407.3z"/>
</svg>
