<?xml version="1.0" encoding="utf-8"?>
<!-- Generator: Adobe Illustrator 27.0.0, SVG Export Plug-In . SVG Version: 6.00 Build 0)  -->
<svg version="1.1"
	 id="svg146" xmlns:sodipodi="http://sodipodi.sourceforge.net/DTD/sodipodi-0.dtd" xmlns:inkscape="http://www.inkscape.org/namespaces/inkscape" xmlns:svg="http://www.w3.org/2000/svg"
	 xmlns="http://www.w3.org/2000/svg" xmlns:xlink="http://www.w3.org/1999/xlink" x="0px" y="0px" viewBox="0 0 400 400"
	 style="enable-background:new 0 0 400 400;" xml:space="preserve">
<style type="text/css">
	.st0{fill:none;stroke:#FFFFFF;stroke-width:75;stroke-linecap:round;stroke-linejoin:round;}
</style>
<sodipodi:namedview  bordercolor="#eeeeee" borderopacity="1" id="namedview148" inkscape:current-layer="g916" inkscape:cx="108.78566" inkscape:cy="412.68366" inkscape:deskcolor="#505050" inkscape:pagecheckerboard="0" inkscape:pageopacity="0" inkscape:showpageshadow="0" inkscape:window-height="1009" inkscape:window-maximized="1" inkscape:window-width="1920" inkscape:window-x="-8" inkscape:window-y="-8" inkscape:zoom="0.71241008" pagecolor="#505050" showgrid="false">
	</sodipodi:namedview>
<g id="g916" transform="matrix(0.49989637,0,0,0.49886337,-0.01912095,0.01850937)">
	<path id="path142" class="st0" d="M586.3,401.2c0,103.6-83.9,187.5-187.5,187.5c-103.6,0-187.5-83.9-187.5-187.5
		s83.9-187.5,187.5-187.5C502.3,213.7,586.3,297.6,586.3,401.2z"/>
	<path id="path144" class="st0" d="M398.8,44.8C231.5,44.8,90,194.6,42.4,401.2C90,607.8,231.5,757.6,398.8,757.6
		c167.2,0,308.8-149.8,356.4-356.4C707.6,194.6,566,44.8,398.8,44.8z"/>
	<path id="path2338" class="st0" d="M309.4,411.7l69.6,66.5l139.1-133"/>
</g>
</svg>
