<?xml version="1.0" encoding="utf-8"?>
<!-- Generator: Adobe Illustrator 27.0.0, SVG Export Plug-In . SVG Version: 6.00 Build 0)  -->
<svg version="1.1" id="Layer_2" xmlns="http://www.w3.org/2000/svg" xmlns:xlink="http://www.w3.org/1999/xlink" x="0px" y="0px"
	 viewBox="0 0 400 400" style="enable-background:new 0 0 400 400;" xml:space="preserve">
<style type="text/css">
	.st0{fill:none;stroke:#FFFFFF;stroke-width:25;stroke-linecap:round;stroke-linejoin:round;}
</style>
<g id="Layer_5">
	<g>
		<g>
			<polyline class="st0" points="376.7,329.1 376.7,376.7 329.2,376.7 281.6,376.7 			"/>
			<polyline class="st0" points="281.6,24.3 329.2,24.3 376.7,24.3 376.7,71.8 			"/>
			<polyline class="st0" points="23.3,70.8 23.3,23.3 70.9,23.3 118.4,23.3 			"/>
			<polyline class="st0" points="119.4,376.7 71.9,376.7 24.3,376.7 24.3,329.1 			"/>
		</g>
		<g>
			<path class="st0" d="M336.7,152.1l-121.3,0.8l-93.9-0.8c-36.3,6.4-60,40.4-57,74.4c2.6,30,25.8,55.6,57,62c30.3,0,60.7,0,91,0"/>
			<polyline class="st0" points="279.3,191.8 337.3,152 278.8,113 			"/>
		</g>
	</g>
</g>
</svg>
