<?xml version="1.0" encoding="utf-8"?>
<!-- Generator: Adobe Illustrator 27.0.0, SVG Export Plug-In . SVG Version: 6.00 Build 0)  -->
<svg version="1.1"
	 id="Layer_1" xmlns:sodipodi="http://sodipodi.sourceforge.net/DTD/sodipodi-0.dtd" xmlns:inkscape="http://www.inkscape.org/namespaces/inkscape" xmlns:svg="http://www.w3.org/2000/svg"
	 xmlns="http://www.w3.org/2000/svg" xmlns:xlink="http://www.w3.org/1999/xlink" x="0px" y="0px" viewBox="0 0 400 400"
	 style="enable-background:new 0 0 400 400;" xml:space="preserve">
<style type="text/css">
	.st0{fill:none;stroke:#FFFFFF;stroke-width:36.3654;stroke-linecap:round;stroke-linejoin:round;}
</style>
<sodipodi:namedview  bordercolor="#eeeeee" borderopacity="1" id="namedview73" inkscape:current-layer="Layer_1" inkscape:cx="308.06993" inkscape:cy="236.48374" inkscape:deskcolor="#505050" inkscape:pagecheckerboard="0" inkscape:pageopacity="0" inkscape:showpageshadow="0" inkscape:window-height="1009" inkscape:window-maximized="1" inkscape:window-width="1920" inkscape:window-x="-8" inkscape:window-y="-8" inkscape:zoom="1.403902" pagecolor="#505050" showgrid="false">
	</sodipodi:namedview>
<path id="Gear" sodipodi:nodetypes="cccccccccccccccccccccccccccccccccccssscc" class="st0" d="M227.7,381.8h-55.4l-7.3-48.3
	c-12.2-3.2-23.8-8.1-34.7-14.4l-39.3,29L51.9,309l29-39.4c-6.4-10.8-11.2-22.5-14.4-34.7l-48.3-7.3v-55.3l48.3-7.3
	c3.2-12.2,8-23.8,14.4-34.7L51.9,91L91,51.8l39.3,29c10.8-6.4,22.5-11.2,34.7-14.4l7.3-48.3h55.4l7.3,48.3
	c12.2,3.2,23.8,8,34.7,14.4l39.3-29L348.2,91l-29,39.3c6.4,10.8,11.2,22.5,14.4,34.7l48.3,7.3v55.4l-48.3,7.3
	c-3.2,12.2-8,23.8-14.4,34.7l29,39.4L309,348.2l-39.3-29c-10.9,6.4-22.5,11.2-34.7,14.4L227.7,381.8z M200,139.2
	c-24.6,0-46.8,14.8-56.2,37.5c-9.4,22.7-4.2,48.9,13.2,66.3s43.5,22.6,66.3,13.2c22.7-9.4,37.5-31.6,37.5-56.2
	C260.7,166.4,233.6,139.2,200,139.2L200,139.2z"/>
</svg>
