<?xml version="1.0" encoding="utf-8"?>
<!-- Generator: Adobe Illustrator 26.5.1, SVG Export Plug-In . SVG Version: 6.00 Build 0)  -->
<svg version="1.1" id="Layer_3" xmlns="http://www.w3.org/2000/svg" xmlns:xlink="http://www.w3.org/1999/xlink" x="0px" y="0px"
	 viewBox="0 0 800 800" style="enable-background:new 0 0 800 800;" xml:space="preserve">
<style type="text/css">
	.st0{fill:#FFFFFF;stroke:#77C043;stroke-miterlimit:10;}
</style>
<path class="st0" d="M139.4,588.7v84.6c1.1,3.5,4,10.5,10.8,16.5c10.4,9.1,22.6,9.3,25.8,9.3c2.9-0.1,14.1-0.6,23.7-9.3
	c8.5-7.7,10.8-17,11.4-20.1c0-40.4,0-80.9,0-121.3l75.4-41.3v162.1c1,3.5,4.1,13,13.4,20.6c10.4,8.6,21.8,9.2,25.3,9.3
	c3.6-0.1,12.3-0.7,21.2-6.7c10.1-6.9,13.9-16.4,15-19.6c0-69.7,0-139.4,0-209l74.3-40.3l4.2,245.2c0.8,3.7,3,11.5,9.7,18.6
	c9.7,10.2,22,11.6,25.3,11.9c2.8,0.4,13.9,1.6,23.2-5.7c10.3-8.1,12-21.7,12-21.7c0,0-0.1,0-0.1,0.1c-2.6,1.5,0.1-292.1,0.1-292.1
	l75.2-38.7v330.3c1.7,3.9,5.8,11.9,14.5,18.6c8.7,6.7,17.5,8.7,21.7,9.3c2.4,0.3,14.6,1.7,25.8-6.7c10.6-7.9,12.9-19.1,13.4-21.7
	c0-124,0-248.1,0-372.1l97-54.2c2.8-2.5,11.7-11.1,13.9-25.3c1.7-10.5-1.1-18.9-2.6-22.7c-0.7-2-4.7-13.3-17-19.1
	c-12.2-5.7-23.3-1.8-25.3-1c-21.5,11-43,22-64.5,33l-2.6-80c-0.4-2.9-2-12.1-9.8-19.6c-10.2-9.9-23.1-9.4-25.3-9.3
	c-2.7-0.2-15.1-0.8-25.8,8.3c-7.8,6.6-10.5,14.8-11.4,18.1c0,41.6,0,83.3,0,124.9l-75.9,44.9l0.5-165.7c-0.4-2.4-2.6-15.1-14.5-23.7
	c-11.2-8.2-23.2-7-25.8-6.7c-4,0.6-14.6,2.9-23.7,11.9c-6.7,6.5-9.6,13.7-10.8,17.5c0,68,0,135.9,0,203.9l-75.4,43.4l1-244.6
	c-0.7-3.4-3.8-15.1-15-23.7c-8.8-6.7-17.9-8-21.7-8.3c-2.8-0.1-14.9-0.2-25.3,8.8c-7.9,6.9-10.5,15.3-11.4,18.6
	c-0.7,95.7-1.4,191.3-2.1,287l-74.8,44.9l0.5-332.4c-0.8-2.9-3.5-12-12.4-19.1c-9.3-7.4-19.2-7.7-22.2-7.7c-3.5,0-15.1,0.3-25.8,8.8
	c-8.8,6.9-12.2,15.5-13.4,19.1c0,123.9,0,247.7,0,371.6L37.7,557.7c-2.8,3.8-8.1,12-9.3,23.7c-0.8,7.7,0.4,14,1.5,18.1
	c1.9,3.7,6.6,11.5,16,17c14.2,8.4,28.7,5.4,32,4.6C98.4,610.4,118.9,599.5,139.4,588.7z"/>
</svg>
