<?xml version="1.0" encoding="utf-8"?>
<!-- Generator: Adobe Illustrator 27.0.0, SVG Export Plug-In . SVG Version: 6.00 Build 0)  -->
<svg version="1.1"
	 id="Layer_1" xmlns:sodipodi="http://sodipodi.sourceforge.net/DTD/sodipodi-0.dtd" xmlns:inkscape="http://www.inkscape.org/namespaces/inkscape" xmlns:svg="http://www.w3.org/2000/svg"
	 xmlns="http://www.w3.org/2000/svg" xmlns:xlink="http://www.w3.org/1999/xlink" x="0px" y="0px" viewBox="0 0 400 400"
	 style="enable-background:new 0 0 400 400;" xml:space="preserve">
<style type="text/css">
	.st0{fill:#FFFFFF;}
</style>
<sodipodi:namedview  bordercolor="#eeeeee" borderopacity="1" id="namedview534" inkscape:current-layer="Layer_1" inkscape:cx="-112.67307" inkscape:cy="232.33362" inkscape:deskcolor="#505050" inkscape:pagecheckerboard="0" inkscape:pageopacity="0" inkscape:showpageshadow="0" inkscape:window-height="1009" inkscape:window-maximized="1" inkscape:window-width="1920" inkscape:window-x="-8" inkscape:window-y="-8" inkscape:zoom="0.57245266" pagecolor="#505050" showgrid="false">
	</sodipodi:namedview>
<path id="path531" class="st0" d="M359,92.2l-69.6-58C263,12.2,227.8,0,190.4,0H100C44.8-0.2,0,37.2,0,83.2v233.4
	c0,46,44.8,83.4,100,83.4h200c55.2,0,100-37.3,100-83.4V174.7C400,143.6,385.4,114.2,359,92.2z M330.8,115.7
	c6.4,5.3,11.8,11.2,16.2,17.5h-86.8c-11,0-20-7.5-20-16.7V44.2c7.6,3.7,14.6,8.2,21,13.5L330.8,115.7z M360,316.6
	c0,27.5-27,50-60,50H100c-33,0-60-22.5-60-50V83.2c0-27.5,27-50,60-50h90.2c3.2,0,6.6,0,9.8,0.3v83c0,27.5,27,50,60,50h99.6
	c0.4,2.7,0.4,5.3,0.4,8.2V316.6z M160,316.6c0,9.2-9,16.7-20,16.7h-40c-11,0-20-7.5-20-16.7V300c0-9.2,9-16.7,20-16.7
	s20,7.5,20,16.7h20C151,300,160,307.5,160,316.6z M320,300v16.7c0,9.2-9,16.7-20,16.7h-40c-11,0-20-7.5-20-16.7s9-16.7,20-16.7h20
	c0-9.2,9-16.7,20-16.7S320,290.8,320,300z M320,216.6v16.7c0,9.2-9,16.7-20,16.7s-20-7.5-20-16.7h-20c-11,0-20-7.5-20-16.7
	s9-16.7,20-16.7h40C311,199.9,320,207.4,320,216.6z M160,216.6c0,9.2-9,16.7-20,16.7h-20c0,9.2-9,16.7-20,16.7s-20-7.5-20-16.7
	v-16.7c0-9.2,9-16.7,20-16.7h40C151,199.9,160,207.4,160,216.6z M160,149.9c0,9.2-9,16.7-20,16.7h-40c-11,0-20-7.5-20-16.7
	c0-9.2,9-16.7,20-16.7h40C151,133.2,160,140.7,160,149.9z"/>
</svg>
