<?xml version="1.0" encoding="utf-8"?>
<!-- Generator: Adobe Illustrator 27.0.0, SVG Export Plug-In . SVG Version: 6.00 Build 0)  -->
<svg version="1.1"
	 id="svg5153" xmlns:svg="http://www.w3.org/2000/svg" xmlns:sodipodi="http://sodipodi.sourceforge.net/DTD/sodipodi-0.dtd" xmlns:inkscape="http://www.inkscape.org/namespaces/inkscape" inkscape:version="1.2.2 (732a01da63, 2022-12-09)" sodipodi:docname="2_necklace.svg"
	 xmlns="http://www.w3.org/2000/svg" xmlns:xlink="http://www.w3.org/1999/xlink" x="0px" y="0px" viewBox="0 0 800 800"
	 style="enable-background:new 0 0 800 800;" xml:space="preserve">
<style type="text/css">
	.st0{fill:none;stroke:#03B5AA;stroke-width:86.1463;stroke-linecap:round;stroke-linejoin:round;stroke-miterlimit:133.3333;}
	.st1{fill:#03B5AA;}
</style>
<sodipodi:namedview  bordercolor="#eeeeee" borderopacity="1" id="namedview5155" inkscape:current-layer="svg5153" inkscape:cx="290.47045" inkscape:cy="534.62002" inkscape:deskcolor="#505050" inkscape:pagecheckerboard="0" inkscape:pageopacity="0" inkscape:showpageshadow="0" inkscape:window-height="1009" inkscape:window-maximized="1" inkscape:window-width="1920" inkscape:window-x="-8" inkscape:window-y="-8" inkscape:zoom="0.518125" pagecolor="#505050" showgrid="false">
	</sodipodi:namedview>
<path id="path5151" sodipodi:nodetypes="ssccsscccccccccccccssccss" class="st0" d="M400,722.9c-39.9,0-72.4-32.2-72.4-71.9
	c0-21.4,9.5-40.6,24.4-53.8c254.2,215.3-34.4-6.3-52.6-13c0.5,2.7-18.6,51.2-42.5,51.2s-43.3-19.3-43.3-43c0-16.4,9.4-30.8,23.1-38
	c-19.2-12-37.4-26.2-54.1-42.8c-119.9-119-119.9-312.7,0-431.7c4.3-4.3,11.3-4.3,15.6,0c4.3,4.3,4.3,11.2,0,15.5
	C86.8,206,86.8,385.8,198.1,496.2c55.6,55.2,128.8,82.8,201.9,82.9c73.1,0,146.2-27.6,201.9-82.9c111.3-110.5,111.3-290.2,0-400.7
	c-4.3-4.3-4.3-11.2,0-15.5c4.3-4.3,11.3-4.3,15.6,0c119.9,119,119.9,312.7,0,431.7c-16.7,16.6-34.9,30.9-54.1,42.8
	c13.7,7.2,23.1,21.6,23.1,38c0,23.7-19.4,43-43.3,43c-23.9,0-77.3-41-95.1-38.3c15,13.2,24.4,32.4,24.4,53.8
	C472.4,690.7,439.9,722.9,400,722.9L400,722.9z"/>
<path id="path30567" class="st1" d="M543.8,374.9v76.3H256.2c3.1-28.8,12.4-56.1,28-81.9c15.6-25.8,46.3-60.1,92.2-102.7
	c36.9-34.5,59.6-57.8,68-70.1c11.3-17,17-33.7,17-50.3c0-18.3-4.9-32.4-14.7-42.2c-9.8-9.8-23.3-14.8-40.5-14.8
	c-17,0-30.6,5.2-40.6,15.5c-10.1,10.3-15.9,27.5-17.4,51.5l-82.1-8.2c4.9-45.2,20.1-77.6,45.8-97.3c25.7-19.7,57.8-29.5,96.3-29.5
	c42.2,0,75.4,11.4,99.5,34.2c24.1,22.8,36.2,51.1,36.2,85c0,19.3-3.5,37.6-10.4,55c-6.9,17.4-17.8,35.7-32.8,54.7
	c-9.9,12.6-27.9,30.9-53.9,54.6c-26,23.7-42.4,39.5-49.3,47.3c-6.9,7.8-12.5,15.4-16.8,22.8L543.8,374.9L543.8,374.9z"/>
</svg>
