<?xml version="1.0" encoding="utf-8"?>
<!-- Generator: Adobe Illustrator 27.0.0, SVG Export Plug-In . SVG Version: 6.00 Build 0)  -->
<svg version="1.1"
	 id="svg5153" xmlns:svg="http://www.w3.org/2000/svg" xmlns:sodipodi="http://sodipodi.sourceforge.net/DTD/sodipodi-0.dtd" xmlns:inkscape="http://www.inkscape.org/namespaces/inkscape" inkscape:version="1.2.2 (732a01da63, 2022-12-09)" sodipodi:docname="3_necklace.svg"
	 xmlns="http://www.w3.org/2000/svg" xmlns:xlink="http://www.w3.org/1999/xlink" x="0px" y="0px" viewBox="0 0 800 800"
	 style="enable-background:new 0 0 800 800;" xml:space="preserve">
<style type="text/css">
	.st0{fill:none;stroke:#03B5AA;stroke-width:86.1463;stroke-linecap:round;stroke-linejoin:round;stroke-miterlimit:133.3333;}
	.st1{fill:#03B5AA;}
</style>
<sodipodi:namedview  bordercolor="#eeeeee" borderopacity="1" id="namedview5155" inkscape:current-layer="svg5153" inkscape:cx="290.47045" inkscape:cy="534.62002" inkscape:deskcolor="#505050" inkscape:pagecheckerboard="0" inkscape:pageopacity="0" inkscape:showpageshadow="0" inkscape:window-height="1009" inkscape:window-maximized="1" inkscape:window-width="1920" inkscape:window-x="-8" inkscape:window-y="-8" inkscape:zoom="0.518125" pagecolor="#505050" showgrid="false">
	</sodipodi:namedview>
<path id="path5151" sodipodi:nodetypes="ssccsscccccccccccccssccss" class="st0" d="M400,722.9c-39.9,0-72.4-32.2-72.4-71.9
	c0-21.4,9.5-40.6,24.4-53.8c254.2,215.3-34.4-6.3-52.6-13c0.5,2.7-18.6,51.2-42.5,51.2s-43.3-19.3-43.3-43c0-16.4,9.4-30.8,23.1-38
	c-19.2-12-37.4-26.2-54.1-42.8c-119.9-119-119.9-312.7,0-431.7c4.3-4.3,11.3-4.3,15.6,0c4.3,4.3,4.3,11.2,0,15.5
	C86.8,206,86.8,385.8,198.1,496.2c55.6,55.2,128.8,82.8,201.9,82.9c73.1,0,146.2-27.6,201.9-82.9c111.3-110.5,111.3-290.2,0-400.7
	c-4.3-4.3-4.3-11.2,0-15.5c4.3-4.3,11.3-4.3,15.6,0c119.9,119,119.9,312.7,0,431.7c-16.7,16.6-34.9,30.9-54.1,42.8
	c13.7,7.2,23.1,21.6,23.1,38c0,23.7-19.4,43-43.3,43c-23.9,0-77.3-41-95.1-38.3c15,13.2,24.4,32.4,24.4,53.8
	C472.4,690.7,439.9,722.9,400,722.9L400,722.9z"/>
<path id="path32910" class="st1" d="M502.3,425.4c-27.8,26.8-62.3,40.1-103.8,40.1c-39.2,0-71.7-11.3-97.5-33.8
	c-25.9-22.5-40.8-52-45-88.3l80.4-9.7c2.6,20.4,9.4,36,20.7,46.8c11.2,10.8,24.8,16.2,40.8,16.2c17.1,0,31.6-6.5,43.3-19.6
	c11.7-13,17.6-30.6,17.6-52.7c0-20.9-5.6-37.5-16.8-49.7c-11.3-12.2-25-18.3-41.1-18.3c-10.7,0-23.4,2.1-38.2,6.2l9.1-67.1
	c22.5,0.6,39.6-4.3,51.4-14.6c11.8-10.3,17.7-24,17.7-41.2c0-14.6-4.3-26.1-12.9-34.8c-8.7-8.6-20.1-13-34.5-13
	c-14.2,0-26.2,4.9-36.2,14.7s-16.1,24.2-18.3,43.1l-76.7-13c5.3-26.3,13.3-47.3,24.1-63c10.8-15.7,25.7-28.1,44.9-37.1
	s40.8-13.5,64.6-13.5c40.8,0,73.5,13,98.1,39c20.3,21.3,30.4,45.3,30.4,72.1c0,38-20.8,68.4-62.5,91.1c24.8,5.3,44.7,17.2,59.6,35.7
	c14.9,18.5,22.3,40.9,22.3,67C544,366.2,530.1,398.6,502.3,425.4z"/>
</svg>
