<?xml version="1.0" encoding="utf-8"?>
<!-- Generator: Adobe Illustrator 27.0.0, SVG Export Plug-In . SVG Version: 6.00 Build 0)  -->
<svg version="1.1" id="Layer_2_00000013177214456927462350000000934427836269733564_"
	 xmlns="http://www.w3.org/2000/svg" xmlns:xlink="http://www.w3.org/1999/xlink" x="0px" y="0px" viewBox="0 0 360 360"
	 style="enable-background:new 0 0 360 360;" xml:space="preserve">
<style type="text/css">
	.st0{fill:none;stroke:#03B5AA;stroke-width:10;stroke-miterlimit:10;}
	.st1{fill:#00B4A9;stroke:#03B5AA;stroke-width:10;stroke-miterlimit:10;}
</style>
<g>
	<path class="st0" d="M99.1,254.9c30.1,0,64.4-6.5,98.4-18.9c40.7-14.8,76.3-36.3,100.3-60.4c24.8-25,34.3-50.1,26.8-70.7
		c-7.5-20.6-30.9-33.8-66-37C224.8,64.7,183.7,71.2,143,86c-40.7,14.8-76.3,36.3-100.3,60.4c-24.8,25-34.3,50.1-26.8,70.7
		c7.5,20.6,30.9,33.8,66,37C87.5,254.6,93.2,254.8,99.1,254.9L99.1,254.9z M49.1,152.7c23-23.2,57.5-43.9,97-58.3
		s79.2-20.6,111.8-17.6c31.4,2.9,52.1,13.9,58.4,31.1c1.4,3.9,2.1,8.1,1.9,12.4c-11.5-6.9-26.7-11.3-45.1-13
		c-33.9-3.1-74.9,3.3-115.6,18.1c-40.7,14.8-76.3,36.3-100.3,60.4c-13,13.1-21.9,26.2-26.2,39c-2.9-3.3-5.1-6.9-6.5-10.8
		C18.1,196.9,26.9,175.1,49.1,152.7L49.1,152.7z M63.4,192.2c23-23.2,57.5-43.9,97-58.3s79.2-20.6,111.8-17.6
		c18.8,1.7,34.1,6.5,44.5,13.8c-3.2,12.3-12,25.8-25.2,39.2c-23,23.2-57.5,43.9-97,58.3c-39.5,14.4-79.2,20.6-111.8,17.6
		c-18.8-1.7-34.1-6.5-44.5-13.8C41.5,219.1,50.2,205.5,63.4,192.2L63.4,192.2z"/>
	<path class="st0" d="M345.2,162c-0.3-1.2-1.1-2.3-2.3-2.9c-1.1-0.6-2.4-0.7-3.6-0.2c-2.2,0.8-3.4,3.1-2.9,5.3
		c4.3,16.7-4.8,37.4-25.6,58.5c-23,23.2-57.5,43.9-97,58.3c-39.5,14.4-79.2,20.6-111.8,17.6c-29.5-2.7-49.8-12.8-57.2-28.3
		c-1-2-3.4-3-5.6-2.2c-1.2,0.4-2.1,1.3-2.6,2.5c-0.5,1.2-0.4,2.5,0.1,3.7c8.8,18.5,31.7,30.3,64.5,33.3c5.6,0.5,11.3,0.8,17.2,0.8
		c30.1,0,64.4-6.5,98.4-18.9c40.7-14.8,76.3-36.3,100.3-60.4c0,0,17.1-15.3,23.5-32.3c2.4-6.4,3.6-13,3.6-13
		c0.6-3.1,1.2-7.4,1.2-12.6C345.7,167.5,345.5,164.5,345.2,162z"/>
</g>
<circle class="st1" cx="147.2" cy="274.5" r="6.7"/>
<circle class="st1" cx="206.3" cy="260.1" r="6.7"/>
<circle class="st1" cx="260.9" cy="233.1" r="6.7"/>
</svg>
