<?xml version="1.0" encoding="utf-8"?>
<!-- Generator: Adobe Illustrator 27.0.0, SVG Export Plug-In . SVG Version: 6.00 Build 0)  -->
<svg version="1.1"
	 id="Layer_1" xmlns:svg="http://www.w3.org/2000/svg" xmlns:sodipodi="http://sodipodi.sourceforge.net/DTD/sodipodi-0.dtd" xmlns:inkscape="http://www.inkscape.org/namespaces/inkscape" inkscape:export-filename="ring.png" inkscape:export-xdpi="96" inkscape:export-ydpi="96" inkscape:version="1.2.2 (732a01da63, 2022-12-09)" sodipodi:docname="ring.svg"
	 xmlns="http://www.w3.org/2000/svg" xmlns:xlink="http://www.w3.org/1999/xlink" x="0px" y="0px" viewBox="0 0 800 800"
	 style="enable-background:new 0 0 800 800;" xml:space="preserve">
<style type="text/css">
	.st0{fill:#03B5AA;}
</style>
<sodipodi:namedview  bordercolor="#eeeeee" borderopacity="1" id="namedview3384" inkscape:current-layer="Layer_1" inkscape:cx="342.60475" inkscape:cy="307.88572" inkscape:deskcolor="#505050" inkscape:pagecheckerboard="0" inkscape:pageopacity="0" inkscape:showpageshadow="0" inkscape:window-height="1009" inkscape:window-maximized="1" inkscape:window-width="1920" inkscape:window-x="-8" inkscape:window-y="-8" inkscape:zoom="0.76327021" pagecolor="#505050" showgrid="false">
	</sodipodi:namedview>
<g>
	<path class="st0" d="M328.5,234c8.5,6.8,22.5,19.8,42.7,19.3c9.9-0.2,24.4-1.8,40.2-8.4c12.7-5.3,16.4-9.8,27.7-16.6
		c10-6,38.3-23.5,69.2-19.5c22.7,2.9,39.3,15.1,48.9,24.1c3.7-12.3,9.1-36.7,3.2-66.5c-4.6-22.7-13.9-39.5-20.6-49.4
		c-63.2-16.6-113.5-12.8-143.3-8c-63.7,10.3-81.3,32.9-86.3,40.2c-3.7,5.4-14.3,21.2-11.7,41.1C301.1,212.1,317.8,225.4,328.5,234z"
		/>
	<path class="st0" d="M216.7,553.3c-7.6-10.7-17.6-28.7-17.5-51.6c0-24.9,15.5-46.8,28.3-66c7.3-11,11.4-15,18.1-27.4
		c8.2-15.4,12.6-29.2,15.1-38.6c0.7-4.6,3.6-27.3-11.6-48.7c-14.8-20.8-36.3-25.7-41.1-26.7c-8.4-1.2-20.4-1.8-33.3,2.6
		c-35.7,12.2-49.8,52.5-59.8,81c-19.1,54.6-16.9,106.2-10.7,143.2c9,7.8,24.4,19.3,46.3,26.8C179.1,557.6,204.1,555.4,216.7,553.3z"
		/>
	<path class="st0" d="M698.2,313.6c-5.9-35.8-23.9-68.4-26.5-72.9c-28.6-50.9-68.7-78.4-89.3-90.6c3.9,20.7,7.7,52.3,2.6,89.7
		C571,343.3,500.4,409.3,443.4,462.8c-49.9,46.8-92.7,86.8-164.3,104.7c-63.2,15.8-117.9,6.7-148.7-1c20.8,20.2,41.6,40.4,62.4,60.6
		c22.8,20.8,78.9,66.1,155.9,67.9c92.1,2.1,154.3-59.7,219.4-124.2C614.1,525.1,716.4,423.7,698.2,313.6z M510.9,550.9
		c-24.8,0-44.9-20.1-44.9-44.9c0-24.8,20.1-44.9,44.9-44.9c24.8,0,44.9,20.1,44.9,44.9C555.8,530.8,535.7,550.9,510.9,550.9z"/>
</g>
</svg>
