<?xml version="1.0" encoding="UTF-8"?>
<svg id="Layer_2" xmlns="http://www.w3.org/2000/svg" xmlns:xlink="http://www.w3.org/1999/xlink" viewBox="0 0 360 360">
  <defs>
    <style>
      .cls-1 {
        fill: #fff;
      }

      .cls-2 {
        fill: none;
      }

      .cls-3 {
        fill: #46aa73;
      }

      .cls-4 {
        clip-path: url(#clippath-1);
      }

      .cls-5 {
        clip-path: url(#clippath);
      }
    </style>
    <clipPath id="clippath">
      <path class="cls-2" d="M100.72,143v137.03h204.51v-137.03H100.72ZM138.74,242.5c-8.87,1.99-17.09,4.64-24.38,7.89-.49.22-.99.43-1.46.65-.4.19-.79.38-1.18.57-.49.24-.95.48-1.43.73-.59-1.42-1.06-2.87-1.41-4.34l-4.57-19.62c2.15-1.24,4.43-2.42,6.86-3.55,1.87-.87,3.8-1.69,5.78-2.48-.87,1.58-1.58,3.15-2.11,4.69,1.7,1.68,3.8,3.28,6.26,4.75,5.1,3.05,11.5,5.44,19.01,7.08l.55,1.62c-.6.7-1.25,1.36-1.93,2.01Z"/>
    </clipPath>
    <clipPath id="clippath-1">
      <path class="cls-2" d="M76.41,76.49v137.03h204.51V76.49H76.41ZM273.91,176.56c-3.31-1.21-6.94-2.24-10.87-3.06-5.37-1.13-11.12-1.87-17.16-2.23,5.62-1.55,10.62-3.59,14.66-6.01,2.46-1.47,4.57-3.07,6.26-4.75-1.33-3.88-3.77-7.94-7.25-12.05-.25-.3-.54-.6-.8-.89,0,0,.02,0,.03,0,7.71,1.62,14.37,3.98,19.87,6.98.12.06.22.13.34.19l-5.08,21.82Z"/>
    </clipPath>
  </defs>
  <g>
    <g>
      <path class="cls-1" d="M258.77,147.57c-19.89-4.18-44.77-3.23-70.06,2.65-25.28,5.88-48.02,16.02-64.02,28.56-16.85,13.19-24.4,27.88-21.27,41.35l6.43,27.63c3.14,13.47,16.39,23.31,37.34,27.71,19.89,4.17,44.77,3.23,70.06-2.65,25.29-5.89,48.03-16.04,64.03-28.56,16.85-13.19,24.39-27.88,21.26-41.35l-6.43-27.63c-3.14-13.47-16.39-23.31-37.33-27.71ZM132.31,203.93c15.53-12.17,37.7-22.03,62.44-27.79,24.73-5.76,48.98-6.7,68.3-2.64,12.16,2.56,21.57,7.08,27.01,12.75-2.38,7.48-8.83,15.69-18.61,23.35-15.54,12.17-37.71,22.03-62.44,27.79s-48.98,6.7-68.29,2.64c-12.16-2.55-21.58-7.07-27.01-12.73,2.37-7.48,8.82-15.71,18.61-23.37Z"/>
      <path class="cls-3" d="M258.77,147.57c-19.89-4.18-44.77-3.24-70.06,2.65-25.29,5.89-48.02,16.03-64.03,28.56-16.85,13.19-24.4,27.88-21.27,41.34l6.43,27.63c3.13,13.47,16.39,23.31,37.34,27.7,19.89,4.18,44.77,3.24,70.06-2.65,25.29-5.89,48.03-16.03,64.03-28.56,16.85-13.19,24.4-27.88,21.27-41.34l-6.43-27.63c-3.13-13.47-16.39-23.31-37.34-27.7ZM128.08,185.8c15.53-12.16,37.71-22.03,62.44-27.79,24.73-5.76,48.99-6.69,68.29-2.64,17.73,3.72,29.64,11.63,31.86,21.17.13.57.23,1.16.3,1.75-6.5-5.76-15.97-10.07-27.98-12.6-19.89-4.18-44.77-3.24-70.06,2.65-25.29,5.89-48.02,16.03-64.03,28.56-9.66,7.57-16.26,15.62-19.54,23.66-.2-.56-.37-1.13-.51-1.71-2.22-9.53,4.97-21.89,19.23-33.06ZM290.04,186.25c-2.38,7.48-8.83,15.69-18.6,23.34-15.53,12.16-37.71,22.03-62.44,27.79-24.73,5.76-48.99,6.69-68.29,2.64-12.15-2.55-21.57-7.07-27.01-12.74,2.38-7.48,8.83-15.7,18.61-23.36,15.53-12.16,37.71-22.03,62.44-27.79,24.73-5.76,48.99-6.69,68.29-2.64,12.16,2.55,21.57,7.08,27.01,12.75ZM294.46,192.8l2.65,11.38c2.22,9.53-4.97,21.89-19.23,33.06-15.53,12.16-37.71,22.03-62.44,27.79-24.73,5.76-48.99,6.69-68.29,2.64-17.73-3.72-29.64-11.63-31.86-21.17l-2.65-11.38h0c6.5,5.81,16.03,10.17,28.13,12.71,19.89,4.18,44.77,3.24,70.06-2.65,25.29-5.89,48.03-16.03,64.03-28.56,9.74-7.62,16.36-15.74,19.62-23.84v.02Z"/>
    </g>
    <g>
      <path class="cls-1" d="M122.87,81.05c19.89-4.18,44.77-3.23,70.06,2.65,25.28,5.88,48.02,16.02,64.02,28.56,16.85,13.19,24.4,27.88,21.27,41.35l-6.43,27.63c-3.14,13.47-16.39,23.31-37.34,27.71-19.89,4.17-44.77,3.23-70.06-2.65-25.29-5.89-48.03-16.04-64.03-28.56-16.85-13.19-24.39-27.88-21.26-41.35l6.43-27.63c3.14-13.47,16.39-23.31,37.33-27.71ZM249.33,137.41c-15.53-12.17-37.7-22.03-62.44-27.79-24.73-5.76-48.98-6.7-68.3-2.64-12.16,2.56-21.57,7.08-27.01,12.75,2.38,7.48,8.83,15.69,18.61,23.35,15.54,12.17,37.71,22.03,62.44,27.79,24.73,5.76,48.98,6.7,68.29,2.64,12.16-2.55,21.58-7.07,27.01-12.73-2.37-7.48-8.82-15.71-18.61-23.37Z"/>
      <path class="cls-3" d="M122.87,81.06c19.89-4.18,44.77-3.24,70.06,2.65,25.29,5.89,48.02,16.03,64.03,28.56,16.85,13.19,24.4,27.88,21.27,41.34l-6.43,27.63c-3.13,13.47-16.39,23.31-37.34,27.7-19.89,4.18-44.77,3.24-70.06-2.65s-48.03-16.03-64.03-28.56c-16.85-13.19-24.4-27.88-21.27-41.34l6.43-27.63c3.13-13.47,16.39-23.31,37.34-27.7ZM253.56,119.29c-15.53-12.16-37.71-22.03-62.44-27.79-24.73-5.76-48.99-6.69-68.29-2.64-17.73,3.72-29.64,11.63-31.86,21.17-.13.57-.23,1.16-.3,1.75,6.5-5.76,15.97-10.07,27.98-12.6,19.89-4.18,44.77-3.24,70.06,2.65,25.29,5.89,48.02,16.03,64.03,28.56,9.66,7.57,16.26,15.62,19.54,23.66.2-.56.37-1.13.51-1.71,2.22-9.53-4.97-21.89-19.23-33.06ZM91.6,119.74c2.38,7.48,8.83,15.69,18.6,23.34,15.53,12.16,37.71,22.03,62.44,27.79,24.73,5.76,48.99,6.69,68.29,2.64,12.15-2.55,21.57-7.07,27.01-12.74-2.38-7.48-8.83-15.7-18.61-23.36-15.53-12.16-37.71-22.03-62.44-27.79-24.73-5.76-48.99-6.69-68.29-2.64-12.16,2.55-21.57,7.08-27.01,12.75ZM87.18,126.28l-2.65,11.38c-2.22,9.53,4.97,21.89,19.23,33.06,15.53,12.16,37.71,22.03,62.44,27.79,24.73,5.76,48.99,6.69,68.29,2.64,17.73-3.72,29.64-11.63,31.86-21.17l2.65-11.38h0c-6.5,5.81-16.03,10.17-28.13,12.71-19.89,4.18-44.77,3.24-70.06-2.65-25.29-5.89-48.03-16.03-64.03-28.56-9.74-7.62-16.36-15.74-19.62-23.84v.02Z"/>
    </g>
  </g>
  <g>
    <path class="cls-1" d="M248.84,224.82c-18.43-8.58-42.87-13.3-68.84-13.3-25.96,0-50.4,4.72-68.83,13.3-19.4,9.03-30.09,21.62-30.09,35.45v28.37c0,13.83,10.68,26.42,30.09,35.45,18.43,8.57,42.87,13.3,68.83,13.3,25.97,0,50.41-4.73,68.84-13.3,19.4-9.03,30.08-21.62,30.08-35.45v-28.37c0-13.83-10.68-26.42-30.08-35.45ZM112.89,251.04c17.88-8.33,41.72-12.91,67.11-12.91,25.39,0,49.23,4.58,67.12,12.91,11.27,5.25,19.4,11.79,23.41,18.54-4.02,6.75-12.16,13.28-23.41,18.52-17.89,8.33-41.72,12.91-67.12,12.91s-49.23-4.58-67.11-12.91c-11.26-5.24-19.41-11.78-23.42-18.52,4.01-6.75,12.15-13.3,23.42-18.54Z"/>
    <path class="cls-3" d="M248.84,224.82c-18.43-8.58-42.87-13.3-68.84-13.3-25.96,0-50.41,4.72-68.84,13.3-19.4,9.03-30.08,21.62-30.08,35.45v28.37c0,13.83,10.68,26.42,30.08,35.45,18.43,8.58,42.87,13.3,68.84,13.3s50.41-4.72,68.84-13.3c19.4-9.03,30.08-21.62,30.08-35.45v-28.37c0-13.83-10.68-26.42-30.08-35.45ZM112.89,232.43c17.89-8.33,41.72-12.91,67.11-12.91,25.39,0,49.23,4.58,67.11,12.91,16.42,7.64,26.23,18.05,26.23,27.84,0,.59-.04,1.18-.11,1.78-5.02-7.08-13.27-13.43-24.4-18.61-18.43-8.58-42.87-13.3-68.84-13.3-25.96,0-50.41,4.72-68.84,13.3-11.13,5.18-19.38,11.53-24.4,18.61-.07-.59-.11-1.19-.11-1.78,0-9.79,9.81-20.19,26.23-27.84ZM270.53,269.58c-4.01,6.74-12.16,13.28-23.41,18.52-17.89,8.33-41.72,12.91-67.11,12.91s-49.23-4.58-67.11-12.91c-11.26-5.24-19.41-11.78-23.42-18.53,4.01-6.75,12.15-13.29,23.42-18.53,17.89-8.33,41.72-12.91,67.11-12.91,25.39,0,49.23,4.58,67.11,12.91,11.27,5.24,19.4,11.79,23.41,18.54ZM273.34,276.96v11.68c0,9.79-9.81,20.19-26.23,27.84-17.89,8.33-41.72,12.91-67.11,12.91-25.39,0-49.23-4.58-67.11-12.91-16.42-7.64-26.23-18.05-26.23-27.84v-11.68s0-.01,0-.01c5.01,7.15,13.3,13.55,24.51,18.77,18.43,8.58,42.87,13.3,68.84,13.3,25.96,0,50.41-4.72,68.84-13.3,11.21-5.22,19.5-11.63,24.51-18.77v.02Z"/>
  </g>
  <g class="cls-5">
    <g>
      <path class="cls-1" d="M258.77,147.57c-19.89-4.18-44.77-3.23-70.06,2.65-25.28,5.88-48.02,16.02-64.02,28.56-16.85,13.19-24.4,27.88-21.27,41.35l6.43,27.63c3.14,13.47,16.39,23.31,37.34,27.71,19.89,4.17,44.77,3.23,70.06-2.65,25.29-5.89,48.03-16.04,64.03-28.56,16.85-13.19,24.39-27.88,21.26-41.35l-6.43-27.63c-3.14-13.47-16.39-23.31-37.33-27.71ZM132.31,203.93c15.53-12.17,37.7-22.03,62.44-27.79,24.73-5.76,48.98-6.7,68.3-2.64,12.16,2.56,21.57,7.08,27.01,12.75-2.38,7.48-8.83,15.69-18.61,23.35-15.54,12.17-37.71,22.03-62.44,27.79s-48.98,6.7-68.29,2.64c-12.16-2.55-21.58-7.07-27.01-12.73,2.37-7.48,8.82-15.71,18.61-23.37Z"/>
      <path class="cls-3" d="M258.77,147.57c-19.89-4.18-44.77-3.24-70.06,2.65-25.29,5.89-48.02,16.03-64.03,28.56-16.85,13.19-24.4,27.88-21.27,41.34l6.43,27.63c3.13,13.47,16.39,23.31,37.34,27.7,19.89,4.18,44.77,3.24,70.06-2.65,25.29-5.89,48.03-16.03,64.03-28.56,16.85-13.19,24.4-27.88,21.27-41.34l-6.43-27.63c-3.13-13.47-16.39-23.31-37.34-27.7ZM128.08,185.8c15.53-12.16,37.71-22.03,62.44-27.79,24.73-5.76,48.99-6.69,68.29-2.64,17.73,3.72,29.64,11.63,31.86,21.17.13.57.23,1.16.3,1.75-6.5-5.76-15.97-10.07-27.98-12.6-19.89-4.18-44.77-3.24-70.06,2.65-25.29,5.89-48.02,16.03-64.03,28.56-9.66,7.57-16.26,15.62-19.54,23.66-.2-.56-.37-1.13-.51-1.71-2.22-9.53,4.97-21.89,19.23-33.06ZM290.04,186.25c-2.38,7.48-8.83,15.69-18.6,23.34-15.53,12.16-37.71,22.03-62.44,27.79-24.73,5.76-48.99,6.69-68.29,2.64-12.15-2.55-21.57-7.07-27.01-12.74,2.38-7.48,8.83-15.7,18.61-23.36,15.53-12.16,37.71-22.03,62.44-27.79,24.73-5.76,48.99-6.69,68.29-2.64,12.16,2.55,21.57,7.08,27.01,12.75ZM294.46,192.8l2.65,11.38c2.22,9.53-4.97,21.89-19.23,33.06-15.53,12.16-37.71,22.03-62.44,27.79-24.73,5.76-48.99,6.69-68.29,2.64-17.73-3.72-29.64-11.63-31.86-21.17l-2.65-11.38h0c6.5,5.81,16.03,10.17,28.13,12.71,19.89,4.18,44.77,3.24,70.06-2.65,25.29-5.89,48.03-16.03,64.03-28.56,9.74-7.62,16.36-15.74,19.62-23.84v.02Z"/>
    </g>
  </g>
  <g class="cls-4">
    <g>
      <path class="cls-1" d="M122.87,81.05c19.89-4.18,44.77-3.23,70.06,2.65,25.28,5.88,48.02,16.02,64.02,28.56,16.85,13.19,24.4,27.88,21.27,41.35l-6.43,27.63c-3.14,13.47-16.39,23.31-37.34,27.71-19.89,4.17-44.77,3.23-70.06-2.65-25.29-5.89-48.03-16.04-64.03-28.56-16.85-13.19-24.39-27.88-21.26-41.35l6.43-27.63c3.14-13.47,16.39-23.31,37.33-27.71ZM249.33,137.41c-15.53-12.17-37.7-22.03-62.44-27.79-24.73-5.76-48.98-6.7-68.3-2.64-12.16,2.56-21.57,7.08-27.01,12.75,2.38,7.48,8.83,15.69,18.61,23.35,15.54,12.17,37.71,22.03,62.44,27.79,24.73,5.76,48.98,6.7,68.29,2.64,12.16-2.55,21.58-7.07,27.01-12.73-2.37-7.48-8.82-15.71-18.61-23.37Z"/>
      <path class="cls-3" d="M122.87,81.06c19.89-4.18,44.77-3.24,70.06,2.65,25.29,5.89,48.02,16.03,64.03,28.56,16.85,13.19,24.4,27.88,21.27,41.34l-6.43,27.63c-3.13,13.47-16.39,23.31-37.34,27.7-19.89,4.18-44.77,3.24-70.06-2.65s-48.03-16.03-64.03-28.56c-16.85-13.19-24.4-27.88-21.27-41.34l6.43-27.63c3.13-13.47,16.39-23.31,37.34-27.7ZM253.56,119.29c-15.53-12.16-37.71-22.03-62.44-27.79-24.73-5.76-48.99-6.69-68.29-2.64-17.73,3.72-29.64,11.63-31.86,21.17-.13.57-.23,1.16-.3,1.75,6.5-5.76,15.97-10.07,27.98-12.6,19.89-4.18,44.77-3.24,70.06,2.65,25.29,5.89,48.02,16.03,64.03,28.56,9.66,7.57,16.26,15.62,19.54,23.66.2-.56.37-1.13.51-1.71,2.22-9.53-4.97-21.89-19.23-33.06ZM91.6,119.74c2.38,7.48,8.83,15.69,18.6,23.34,15.53,12.16,37.71,22.03,62.44,27.79,24.73,5.76,48.99,6.69,68.29,2.64,12.15-2.55,21.57-7.07,27.01-12.74-2.38-7.48-8.83-15.7-18.61-23.36-15.53-12.16-37.71-22.03-62.44-27.79-24.73-5.76-48.99-6.69-68.29-2.64-12.16,2.55-21.57,7.08-27.01,12.75ZM87.18,126.28l-2.65,11.38c-2.22,9.53,4.97,21.89,19.23,33.06,15.53,12.16,37.71,22.03,62.44,27.79,24.73,5.76,48.99,6.69,68.29,2.64,17.73-3.72,29.64-11.63,31.86-21.17l2.65-11.38h0c-6.5,5.81-16.03,10.17-28.13,12.71-19.89,4.18-44.77,3.24-70.06-2.65-25.29-5.89-48.03-16.03-64.03-28.56-9.74-7.62-16.36-15.74-19.62-23.84v.02Z"/>
    </g>
  </g>
</svg>