<?xml version="1.0" encoding="utf-8"?>
<!-- Generator: Adobe Illustrator 27.0.0, SVG Export Plug-In . SVG Version: 6.00 Build 0)  -->
<svg version="1.1" id="Layer_2_00000091008763229453203730000007767830282854460808_"
	 xmlns="http://www.w3.org/2000/svg" xmlns:xlink="http://www.w3.org/1999/xlink" x="0px" y="0px" viewBox="0 0 360 360"
	 style="enable-background:new 0 0 360 360;" xml:space="preserve">
<style type="text/css">
	.st0{fill:none;stroke:#03B5AA;stroke-width:15;stroke-linecap:round;stroke-miterlimit:10;}
	.st1{fill:#03B5AA;stroke:#03B5AA;stroke-width:15;stroke-linecap:round;stroke-miterlimit:10;}
	.st2{fill:#03B5AA;stroke:#03B5AA;stroke-width:15;stroke-linecap:round;stroke-linejoin:round;}
	.st3{fill:#03B5AA;}
</style>
<g>
	<path class="st0" d="M302.5,67c0,93.3-54.9,168.9-122.6,168.9S57.5,160.3,57.5,67"/>
	<g>
		<circle class="st1" cx="121.8" cy="241.8" r="18.9"/>
		<circle class="st1" cx="238.2" cy="241.8" r="18.9"/>
	</g>
	<polygon class="st2" points="180,237 161.6,260.1 161.6,277.2 180,315 198.4,277.2 198.4,260.1 	"/>
</g>
<path class="st3" d="M168,141.1c12.3-17.4,18.5-26.3,18.5-34.9s-5.6-13.5-15.9-13.5c-9.3,0-21.3,4.3-32.1,12.9V70.3
	c7.5-5.2,22.2-11,38.8-11c29.3,0,48.4,18.3,48.4,42.6c0,14.2-6.5,27.1-18.5,44.6l-11.8,17.2l0.2,0.4h35.1v32.5H129.4l-0.2-0.4
	L168,141.1L168,141.1z"/>
</svg>
