<?xml version="1.0" encoding="utf-8"?>
<!-- Generator: Adobe Illustrator 27.0.0, SVG Export Plug-In . SVG Version: 6.00 Build 0)  -->
<svg version="1.1" id="Layer_2_00000091008763229453203730000007767830282854460808_"
	 xmlns="http://www.w3.org/2000/svg" xmlns:xlink="http://www.w3.org/1999/xlink" x="0px" y="0px" viewBox="0 0 360 360"
	 style="enable-background:new 0 0 360 360;" xml:space="preserve">
<style type="text/css">
	.st0{fill:none;stroke:#03B5AA;stroke-width:15;stroke-linecap:round;stroke-miterlimit:10;}
	.st1{fill:#03B5AA;stroke:#03B5AA;stroke-width:15;stroke-linecap:round;stroke-miterlimit:10;}
	.st2{fill:#03B5AA;stroke:#03B5AA;stroke-width:15;stroke-linecap:round;stroke-linejoin:round;}
	.st3{fill:#03B5AA;}
</style>
<g>
	<path class="st0" d="M302.5,67c0,93.3-54.9,168.9-122.6,168.9S57.5,160.3,57.5,67"/>
	<g>
		<circle class="st1" cx="121.8" cy="241.8" r="18.9"/>
		<circle class="st1" cx="238.2" cy="241.8" r="18.9"/>
	</g>
	<polygon class="st2" points="180,237 161.6,260.1 161.6,277.2 180,315 198.4,277.2 198.4,260.1 	"/>
</g>
<path class="st3" d="M137.8,156.9c12.1,7.7,24.3,12.9,35.7,12.9c10.1,0,16.4-4.2,16.4-11.8s-5.5-11.2-19.1-11.2h-13.6v-26.5H170
	c12.9,0,17.7-4.8,17.7-11.6c0-7.5-5.7-12.1-16-12.1c-10.9,0-22.3,5.3-30,9.9V72.8c8.7-5.2,22.3-8.3,34.6-8.3
	c28.1,0,49.8,16.4,49.8,37.9c0,12.9-7.7,23-18.4,27.6v0.4c13.6,5.7,20.6,17.5,20.6,30.7c0,24.5-24.1,40.6-52.6,40.6
	c-13.6,0-28-3.7-37.9-9.8L137.8,156.9L137.8,156.9z"/>
</svg>
