<?xml version="1.0" encoding="utf-8"?>
<!-- Generator: Adobe Illustrator 27.0.0, SVG Export Plug-In . SVG Version: 6.00 Build 0)  -->
<svg version="1.1" id="Layer_2_00000181788813475738262880000017353422129235723169_"
	 xmlns="http://www.w3.org/2000/svg" xmlns:xlink="http://www.w3.org/1999/xlink" x="0px" y="0px" viewBox="0 0 360 360"
	 style="enable-background:new 0 0 360 360;" xml:space="preserve">
<style type="text/css">
	.st0{fill:#03B5AA;stroke:#03B5AA;stroke-width:10;stroke-miterlimit:10;}
</style>
<path class="st0" d="M272.6,85.3c0-2.6-2.1-4.6-4.6-4.6H89.6c-2.6,0-4.6,2.1-4.6,4.6s2.1,4.6,4.6,4.6H268
	C270.6,89.9,272.7,87.8,272.6,85.3L272.6,85.3z"/>
<path class="st0" d="M89.6,274.8c-2.6,0-4.6,2.1-4.6,4.6s2.1,4.6,4.6,4.6H268c2.6,0,4.6-2.1,4.6-4.6s-2.1-4.6-4.6-4.6H89.6z"/>
<path class="st0" d="M262.2,170l37.5-74.1l0-1.1c0-1.4,0.3-35.5-22.1-55.1l-1.3-1.2H83.7l-1.3,1.2C60,59.3,60.2,93.4,60.3,94.8
	l0,1.1L97.8,170L60.5,278.5l-0.4,1.1l0.2,1.1c3.4,21,25.5,39,26.4,39.7l1.3,1h184l1.3-1c0.9-0.8,23-18.7,26.4-39.7l0.2-1.1
	L262.2,170z M268.7,312.2H91.3c-4.3-3.8-18.7-17.3-21.7-31.8l36.4-106h16.2c2.6,0,4.6-2.1,4.6-4.6s-2.1-4.6-4.6-4.6h-16.6L69.5,93.7
	c0.1-5.3,1.7-30.7,17.7-45.8h185.6c16,15.2,17.5,40.5,17.7,45.8L254.4,165h-16.6c-2.6,0-4.6,2.1-4.6,4.6s2.1,4.6,4.6,4.6h16.2
	l36.4,106C287.4,294.9,273,308.4,268.7,312.2z"/>
<path class="st0" d="M123.4,252.1c2.6,0,4.6-2.1,4.6-4.6c0-28,22.8-50.7,50.7-50.7s50.7,22.8,50.7,50.7c0,2.6,2.1,4.6,4.6,4.6
	s4.6-2.1,4.6-4.6c0-27.2-18.2-50.3-43.1-57.6l12-12.1l-15.5-23.6h-26.6L150,177.7l12,12.1c-24.9,7.3-43.2,30.4-43.2,57.6
	C118.8,250,120.9,252.1,123.4,252.1L123.4,252.1z M161.9,176.5l8.7-13.2h16.6l8.7,13.2l-11,11.2c-2-0.2-3.9-0.3-5.9-0.3
	s-4,0.1-5.9,0.3L161.9,176.5L161.9,176.5z"/>
</svg>
