<?xml version="1.0" encoding="utf-8"?>
<!-- Generator: Adobe Illustrator 27.0.0, SVG Export Plug-In . SVG Version: 6.00 Build 0)  -->
<svg version="1.1" id="Layer_2_00000155131931628600968410000002819458562509922480_"
	 xmlns="http://www.w3.org/2000/svg" xmlns:xlink="http://www.w3.org/1999/xlink" x="0px" y="0px" viewBox="0 0 360 360"
	 style="enable-background:new 0 0 360 360;" xml:space="preserve">
<style type="text/css">
	.st0{fill:#FFFFFF;stroke:#03B5AA;stroke-width:12;stroke-miterlimit:10;}
	.st1{fill:#46AA73;stroke:#03B5AA;stroke-width:12;stroke-miterlimit:10;}
	.st2{clip-path:url(#SVGID_00000047046924867376833670000016377378264945343159_);}
	
		.st3{clip-path:url(#SVGID_00000047046924867376833670000016377378264945343159_);fill:#46AA73;stroke:#03B5AA;stroke-width:12;stroke-miterlimit:10;}
</style>
<g>
	<path class="st0" d="M70.2,86.7c23-4.8,51.7-3.7,80.9,3.1c29.2,6.8,55.4,18.5,73.9,33c19.5,15.2,28.2,32.2,24.6,47.7l-7.4,31.9
		c-3.6,15.6-18.9,26.9-43.1,32c-23,4.8-51.7,3.7-80.9-3.1c-29.2-6.8-55.5-18.5-73.9-33c-19.5-15.2-28.2-32.2-24.5-47.7l7.4-31.9
		C30.7,103.1,46,91.7,70.2,86.7L70.2,86.7z M216.2,151.7c-17.9-14.1-43.5-25.4-72.1-32.1c-28.6-6.7-56.6-7.7-78.9-3
		c-14,3-24.9,8.2-31.2,14.7c2.7,8.6,10.2,18.1,21.5,27c17.9,14.1,43.5,25.4,72.1,32.1s56.6,7.7,78.8,3c14-2.9,24.9-8.2,31.2-14.7
		C234.9,170.1,227.5,160.6,216.2,151.7L216.2,151.7z"/>
	<path class="st1" d="M70.2,86.7c23-4.8,51.7-3.7,80.9,3.1s55.4,18.5,73.9,33c19.5,15.2,28.2,32.2,24.6,47.7l-7.4,31.9
		c-3.6,15.6-18.9,26.9-43.1,32c-23,4.8-51.7,3.7-80.9-3.1s-55.5-18.5-73.9-33c-19.5-15.2-28.2-32.2-24.6-47.7l7.4-31.9
		C30.7,103.1,46,91.7,70.2,86.7L70.2,86.7z M221.1,130.8c-17.9-14-43.5-25.4-72.1-32.1s-56.6-7.7-78.8-3
		c-20.5,4.3-34.2,13.4-36.8,24.4c-0.2,0.7-0.3,1.3-0.3,2c7.5-6.7,18.4-11.6,32.3-14.5c23-4.8,51.7-3.7,80.9,3.1
		c29.2,6.8,55.4,18.5,73.9,33c11.2,8.7,18.8,18,22.6,27.3c0.2-0.6,0.4-1.3,0.6-2C245.8,158,237.5,143.7,221.1,130.8L221.1,130.8z
		 M34.1,131.3c2.7,8.6,10.2,18.1,21.5,26.9c17.9,14,43.5,25.4,72.1,32.1s56.6,7.7,78.8,3c14-2.9,24.9-8.2,31.2-14.7
		c-2.7-8.6-10.2-18.1-21.5-27c-17.9-14-43.5-25.4-72.1-32.1s-56.6-7.7-78.8-3C51.2,119.5,40.4,124.8,34.1,131.3L34.1,131.3z
		 M29,138.9L25.9,152c-2.6,11,5.7,25.3,22.2,38.2c17.9,14,43.5,25.4,72.1,32.1c28.6,6.7,56.6,7.7,78.8,3
		c20.5-4.3,34.2-13.4,36.8-24.4l3.1-13.1l0,0c-7.5,6.7-18.5,11.7-32.5,14.7c-23,4.8-51.7,3.7-80.9-3.1s-55.5-18.5-73.9-33
		C40.4,157.6,32.7,148.2,29,138.9L29,138.9L29,138.9z"/>
</g>
<g>
	<path class="st0" d="M293,132.5c-22.3-4.8-50.1-3.7-78.4,3.1c-28.3,6.8-53.8,18.5-71.7,33c-18.9,15.2-27.3,32.2-23.8,47.7l7.2,31.9
		c3.5,15.6,18.3,26.9,41.8,32c22.3,4.8,50.1,3.7,78.4-3.1c28.3-6.8,53.8-18.5,71.7-33c18.9-15.2,27.3-32.2,23.8-47.7l-7.2-31.9
		C331.2,148.9,316.4,137.6,293,132.5L293,132.5z M151.4,197.6c17.4-14.1,42.2-25.4,69.9-32.1c27.7-6.7,54.8-7.7,76.5-3
		c13.6,3,24.1,8.2,30.2,14.7c-2.7,8.6-9.9,18.1-20.8,27c-17.4,14.1-42.2,25.4-69.9,32.1s-54.8,7.7-76.4,3
		c-13.6-2.9-24.2-8.2-30.2-14.7C133.2,215.9,140.5,206.4,151.4,197.6L151.4,197.6z"/>
	<path class="st1" d="M293,132.5c-22.3-4.8-50.1-3.7-78.4,3.1s-53.8,18.5-71.7,33c-18.9,15.2-27.3,32.2-23.8,47.7l7.2,31.9
		c3.5,15.6,18.3,26.9,41.8,32c22.3,4.8,50.1,3.7,78.4-3.1c28.3-6.8,53.8-18.5,71.7-33c18.9-15.2,27.3-32.2,23.8-47.7l-7.2-31.9
		C331.3,148.9,316.4,137.5,293,132.5z M146.7,176.6c26.2-16.4,49.9-24.7,66.1-29.2c45-12.3,73.2-5.9,80.3-4.1
		c9,2.3,32.3,8.2,35.7,22.6c0.2,0.8,0.3,1.5,0.3,2c-7.3-6.7-17.9-11.6-31.3-14.5c-22.3-4.8-50.1-3.7-78.4,3.1s-53.8,18.5-71.7,33
		c-10.8,8.7-18.2,18-21.9,27.3c-0.2-0.7-0.4-1.3-0.6-2C121.6,199.2,139.2,182.9,146.7,176.6z M328,177.1
		c-2.7,8.6-9.9,18.1-20.8,26.9c-17.4,14-42.2,25.4-69.9,32.1c-27.7,6.7-54.8,7.7-76.4,3c-13.6-2.9-24.1-8.2-30.2-14.7
		c2.7-8.6,9.9-18.1,20.8-27c17.4-14,42.2-25.4,69.9-32.1c27.7-6.7,54.8-7.7,76.4-3C311.4,165.4,321.9,170.6,328,177.1L328,177.1z
		 M332.9,184.7l3,13.1c2.5,11-5.6,25.3-21.5,38.2c-17.4,14-42.2,25.4-69.9,32.1s-54.8,7.7-76.4,3c-19.8-4.3-33.2-13.4-35.7-24.4
		l-3-13.1l0,0c7.3,6.7,17.9,11.7,31.5,14.7c22.3,4.8,50.1,3.7,78.4-3.1c28.3-6.8,53.8-18.5,71.7-33
		C321.9,203.4,329.3,194,332.9,184.7L332.9,184.7L332.9,184.7z"/>
	<path class="st1" d="M283.7,110.3"/>
</g>
<g>
	<defs>
		<path id="SVGID_1_" d="M16.6,81.4v158.2h236.1V81.4H16.6z M251.3,166.8c-4.4,0.6-8.9,1.3-13.5,2.1c-1.9,0.4-3.8,0.8-5.7,1.2
			c-1.2-1.9-2.7-3.8-4.3-5.7c-3.1-3.6-6.8-7.2-11.1-10.7l-0.3-0.3c-0.3-0.3-0.6-0.5-1-0.8c-0.3-0.2-0.6-0.5-0.9-0.7l-0.6-0.4
			c-2.8-2.1-5.7-4.1-8.8-6.1c5.2-1.6,10.6-3.1,16.1-4.4c6.4-1.5,12.9-2.7,19.2-3.6c0.3,0,0.7-0.1,1-0.1c2.8,3.6,5,7.3,6.7,11.1
			C250.9,154.6,252,160.8,251.3,166.8L251.3,166.8z"/>
	</defs>
	<clipPath id="SVGID_00000005246579142813128120000006255070787440121264_">
		<use xlink:href="#SVGID_1_"  style="overflow:visible;"/>
	</clipPath>
	<g style="clip-path:url(#SVGID_00000005246579142813128120000006255070787440121264_);">
		<g>
			<path class="st0" d="M70.2,86.7c23-4.8,51.7-3.7,80.9,3.1c29.2,6.8,55.4,18.5,73.9,33c19.5,15.2,28.2,32.2,24.6,47.7l-7.4,31.9
				c-3.6,15.6-18.9,26.9-43.1,32c-23,4.8-51.7,3.7-80.9-3.1c-29.2-6.8-55.5-18.5-73.9-33c-19.5-15.2-28.2-32.2-24.5-47.7l7.4-31.9
				C30.7,103.1,46,91.7,70.2,86.7L70.2,86.7z M216.2,151.7c-17.9-14.1-43.5-25.4-72.1-32.1c-28.6-6.7-56.6-7.7-78.9-3
				c-14,3-24.9,8.2-31.2,14.7c2.7,8.6,10.2,18.1,21.5,27c17.9,14.1,43.5,25.4,72.1,32.1s56.6,7.7,78.8,3c14-2.9,24.9-8.2,31.2-14.7
				C234.9,170.1,227.5,160.6,216.2,151.7L216.2,151.7z"/>
			<path class="st1" d="M70.2,86.7c23-4.8,51.7-3.7,80.9,3.1s55.4,18.5,73.9,33c19.5,15.2,28.2,32.2,24.6,47.7l-7.4,31.9
				c-3.6,15.6-18.9,26.9-43.1,32c-23,4.8-51.7,3.7-80.9-3.1s-55.5-18.5-73.9-33c-19.5-15.2-28.2-32.2-24.6-47.7l7.4-31.9
				C30.7,103.1,46,91.7,70.2,86.7L70.2,86.7z M220.5,133.8c-15.1-11.9-39-27-71.2-34.8c-3.5-0.9-39.5-9.2-79-0.3
				c-11.4,2.6-33.6,7.9-36.9,21.4c-0.2,0.8-0.3,1.5-0.3,2c7.5-6.7,18.4-11.6,32.3-14.5c23-4.8,51.7-3.7,80.9,3.1
				c29.2,6.8,55.4,18.5,73.9,33c11.2,8.7,18.8,18,22.6,27.3c0.2-0.7,0.4-1.3,0.6-2C246.6,154.3,226.9,138.6,220.5,133.8z
				 M34.1,131.3c2.7,8.6,10.2,18.1,21.5,26.9c17.9,14,43.5,25.4,72.1,32.1s56.6,7.7,78.8,3c14-2.9,24.9-8.2,31.2-14.7
				c-2.7-8.6-10.2-18.1-21.5-27c-17.9-14-43.5-25.4-72.1-32.1s-56.6-7.7-78.8-3C51.2,119.5,40.4,124.8,34.1,131.3L34.1,131.3z
				 M29,138.9L25.9,152c-2.6,11,5.7,25.3,22.2,38.2c17.9,14,43.5,25.4,72.1,32.1c28.6,6.7,56.6,7.7,78.8,3
				c20.5-4.3,34.2-13.4,36.8-24.4l3.1-13.1l0,0c-7.5,6.7-18.5,11.7-32.5,14.7c-23,4.8-51.7,3.7-80.9-3.1s-55.5-18.5-73.9-33
				C40.4,157.6,32.7,148.2,29,138.9L29,138.9L29,138.9z"/>
		</g>
	</g>
	
		<path style="clip-path:url(#SVGID_00000005246579142813128120000006255070787440121264_);fill:#46AA73;stroke:#03B5AA;stroke-width:12;stroke-miterlimit:10;" d="
		M172.7,69.5"/>
</g>
</svg>
